<?xml version="1.0" encoding="utf-8"?>
<!-- Generator: Adobe Illustrator 27.5.0, SVG Export Plug-In . SVG Version: 6.00 Build 0)  -->
<svg version="1.1" xmlns="http://www.w3.org/2000/svg" xmlns:xlink="http://www.w3.org/1999/xlink" x="0px" y="0px"
	 viewBox="0 0 750 500" style="enable-background:new 0 0 750 500;" xml:space="preserve">
<g id="BACKGROUND">
	<linearGradient id="SVGID_1_" gradientUnits="userSpaceOnUse" x1="375" y1="17.447" x2="375" y2="491.812">
		<stop  offset="0" style="stop-color:#00678A"/>
		<stop  offset="1" style="stop-color:#00A0CF"/>
	</linearGradient>
	<rect style="fill:url(#SVGID_1_);" width="750" height="500"/>
</g>
<g id="OBJECTS">
	<g>
		<g>
			<path style="opacity:0.5;fill:#006E92;" d="M577.596,423.509c0-4.118-95.417-7.457-213.119-7.457s-199.498,3.339-199.498,7.457
				c0,4.118,81.795,7.457,199.498,7.457S577.596,427.628,577.596,423.509z"/>
			<g>
				
					<linearGradient id="SVGID_00000008110964411497245880000018444747048511821754_" gradientUnits="userSpaceOnUse" x1="372.4485" y1="369.5" x2="372.4485" y2="467.7593">
					<stop  offset="0.0513" style="stop-color:#B6C2FD"/>
					<stop  offset="1" style="stop-color:#B6C2FD"/>
				</linearGradient>
				<path style="fill:url(#SVGID_00000008110964411497245880000018444747048511821754_);" d="M411.801,399.1v-28.347h-78.704V399.1
					c0,9.694-7.859,17.553-17.553,17.553l0,0h113.811h0C419.659,416.653,411.801,408.794,411.801,399.1z"/>
				
					<linearGradient id="SVGID_00000029740152300715355340000012685084606383865527_" gradientUnits="userSpaceOnUse" x1="372.4485" y1="366.3942" x2="372.4485" y2="396.7125">
					<stop  offset="0.0399" style="stop-color:#B6C2FD"/>
					<stop  offset="1" style="stop-color:#B6C2FD;stop-opacity:0"/>
				</linearGradient>
				<path style="fill:url(#SVGID_00000029740152300715355340000012685084606383865527_);" d="M411.801,391.171
					c0,0-7.171-10.209-39.326-10.209c-32.155,0-39.379,10.209-39.379,10.209v-20.418h78.705V391.171z"/>
				
					<linearGradient id="SVGID_00000182496544328039500060000001091955897111481487_" gradientUnits="userSpaceOnUse" x1="372.4747" y1="431.053" x2="372.4747" y2="423.3826">
					<stop  offset="0" style="stop-color:#D5D7FE"/>
					<stop  offset="0.9905" style="stop-color:#D5D7FE"/>
				</linearGradient>
				<path style="fill:url(#SVGID_00000182496544328039500060000001091955897111481487_);" d="M449.096,421.945
					c-0.279-2.954-2.686-5.292-5.713-5.292H301.567c-3.027,0-5.434,2.338-5.713,5.292H449.096z"/>
				<g>
					
						<linearGradient id="SVGID_00000137843701239959232940000007462184053961170104_" gradientUnits="userSpaceOnUse" x1="374.5016" y1="128.0883" x2="374.5016" y2="282.2695">
						<stop  offset="0" style="stop-color:#08051A"/>
						<stop  offset="0.9753" style="stop-color:#08051A"/>
					</linearGradient>
					<path style="fill:url(#SVGID_00000137843701239959232940000007462184053961170104_);" d="M561.111,327.006V139.43
						c0-8.82-7.15-15.969-15.969-15.969H203.861c-8.82,0-15.969,7.149-15.969,15.969v187.576H561.111z"/>
					
						<linearGradient id="SVGID_00000015343597703884178990000008263896134307536021_" gradientUnits="userSpaceOnUse" x1="374.5017" y1="317.8294" x2="374.5017" y2="361.4911">
						<stop  offset="0" style="stop-color:#D5D7FE"/>
						<stop  offset="0.9829" style="stop-color:#D5D7FE"/>
					</linearGradient>
					<path style="fill:url(#SVGID_00000015343597703884178990000008263896134307536021_);" d="M187.893,327.006v27.778
						c0,8.82,7.149,15.969,15.968,15.969h341.282c8.819,0,15.968-7.15,15.968-15.969v-27.778H187.893z"/>
					
						<linearGradient id="SVGID_00000169546778063896457910000013717055339017719706_" gradientUnits="userSpaceOnUse" x1="374.5017" y1="116.553" x2="374.5017" y2="570.6981">
						<stop  offset="0" style="stop-color:#04B9FE"/>
						<stop  offset="1" style="stop-color:#009ECD"/>
					</linearGradient>
					<path style="fill:url(#SVGID_00000169546778063896457910000013717055339017719706_);" d="M541.834,313.753H207.169
						c-3.969,0-7.186-3.217-7.186-7.186V141.917c0-3.969,3.217-7.186,7.186-7.186h334.666c3.969,0,7.186,3.217,7.186,7.186v164.649
						C549.021,310.535,545.803,313.753,541.834,313.753z"/>
					
						<linearGradient id="SVGID_00000040546177391103877680000006954822492006705287_" gradientUnits="userSpaceOnUse" x1="374.5016" y1="362.1178" x2="374.5016" y2="337.4354">
						<stop  offset="0" style="stop-color:#B6C2FD"/>
						<stop  offset="1" style="stop-color:#BBC5FD"/>
					</linearGradient>
					<circle style="fill:url(#SVGID_00000040546177391103877680000006954822492006705287_);" cx="374.502" cy="348.879" r="8.555"/>
				</g>
			</g>
		</g>
		<text transform="matrix(1 0 0 1 309.5043 272.6197)" style="fill:#FFFFFF; font-family:'Montserrat-Bold'; font-size:94.4064px;">&lt;/&gt;</text>
	</g>
	<g>
		<g>
			
				<linearGradient id="SVGID_00000121964450701075068880000016958219268090213035_" gradientUnits="userSpaceOnUse" x1="549.442" y1="393.3285" x2="544.9531" y2="347.318" gradientTransform="matrix(-0.9989 0.0458 0.0458 0.9989 713.463 -90.5911)">
				<stop  offset="0" style="stop-color:#B6C2FD"/>
				<stop  offset="1" style="stop-color:#D5D7FE"/>
			</linearGradient>
			<path style="fill:url(#SVGID_00000121964450701075068880000016958219268090213035_);" d="M235.544,209.636l-8.191,2.077
				l1.419,5.595c1.466,0.085,2.774,1.088,3.154,2.587c0.47,1.852-0.651,3.733-2.503,4.203c-1.852,0.469-3.733-0.651-4.203-2.503
				c-0.38-1.499,0.292-3.004,1.54-3.777l-1.419-5.595l-13.179,3.342l1.419,5.595c1.466,0.085,2.774,1.088,3.154,2.587
				c0.47,1.852-0.651,3.733-2.502,4.203c-1.852,0.47-3.733-0.651-4.203-2.502c-0.38-1.499,0.292-3.004,1.54-3.777l-1.419-5.595
				l-13.179,3.342l1.419,5.595c1.466,0.085,2.774,1.088,3.154,2.587c0.47,1.852-0.651,3.733-2.502,4.203
				c-1.852,0.469-3.733-0.651-4.203-2.502c-0.38-1.499,0.292-3.004,1.54-3.777l-1.419-5.595l-13.179,3.342l1.419,5.595
				c1.466,0.085,2.774,1.088,3.154,2.587c0.47,1.852-0.651,3.733-2.502,4.203c-1.852,0.47-3.733-0.651-4.203-2.502
				c-0.38-1.499,0.292-3.004,1.54-3.777l-1.419-5.595l-13.179,3.342l1.419,5.595c1.466,0.085,2.774,1.088,3.154,2.587
				c0.47,1.852-0.651,3.733-2.502,4.203c-1.852,0.47-3.733-0.651-4.203-2.502c-0.38-1.499,0.292-3.004,1.54-3.777l-1.419-5.595
				l-13.179,3.342l1.419,5.595c1.466,0.085,2.774,1.088,3.154,2.587c0.47,1.852-0.651,3.733-2.502,4.203
				c-1.852,0.47-3.733-0.651-4.203-2.502c-0.38-1.499,0.292-3.004,1.54-3.777l-1.419-5.595l-13.179,3.342l1.419,5.595
				c1.466,0.085,2.774,1.088,3.154,2.587c0.469,1.852-0.651,3.733-2.503,4.203c-1.852,0.47-3.733-0.651-4.203-2.502
				c-0.38-1.499,0.292-3.004,1.54-3.777l-1.419-5.595l-13.179,3.342l1.419,5.595c1.466,0.085,2.774,1.088,3.154,2.587
				c0.47,1.852-0.651,3.733-2.502,4.203c-1.852,0.47-3.733-0.651-4.203-2.502c-0.38-1.499,0.292-3.004,1.54-3.777l-1.419-5.595
				l-8.539,2.165l29.846,115.627l102.874-26.78c12.145-3.161,19.427-15.57,16.265-27.714L235.544,209.636z"/>
			
				<linearGradient id="SVGID_00000002372557362950747710000012956140085629578126_" gradientUnits="userSpaceOnUse" x1="184.1291" y1="259.2372" x2="183.8886" y2="256.7723" gradientTransform="matrix(0.9938 -0.1108 0.1108 0.9938 -30.1428 20.1293)">
				<stop  offset="0" style="stop-color:#100A32"/>
				<stop  offset="1" style="stop-color:#0F0830"/>
			</linearGradient>
			<polygon style="fill:url(#SVGID_00000002372557362950747710000012956140085629578126_);" points="132.651,265.661 
				133.574,269.234 229.502,244.403 228.581,240.829 			"/>
			
				<linearGradient id="SVGID_00000181057870872412569060000005704001769939490432_" gradientUnits="userSpaceOnUse" x1="186.9539" y1="281.3403" x2="186.7134" y2="278.8755" gradientTransform="matrix(0.9938 -0.1108 0.1108 0.9938 -30.1428 20.1293)">
				<stop  offset="0" style="stop-color:#100A32"/>
				<stop  offset="1" style="stop-color:#0F0830"/>
			</linearGradient>
			<polygon style="fill:url(#SVGID_00000181057870872412569060000005704001769939490432_);" points="137.908,287.314 
				138.83,290.887 234.758,266.056 233.838,262.482 			"/>
			
				<linearGradient id="SVGID_00000083065726125032729230000001588741556099142547_" gradientUnits="userSpaceOnUse" x1="212.2656" y1="299.6189" x2="212.0857" y2="297.7742" gradientTransform="matrix(0.9938 -0.1108 0.1108 0.9938 -30.1428 20.1293)">
				<stop  offset="0" style="stop-color:#100A32"/>
				<stop  offset="1" style="stop-color:#0F0830"/>
			</linearGradient>
			<polygon style="fill:url(#SVGID_00000083065726125032729230000001588741556099142547_);" points="187.259,297.553 
				188.181,301.126 240.015,287.709 239.094,284.135 			"/>
			
				<linearGradient id="SVGID_00000041278447596902938780000018352267228427612573_" gradientUnits="userSpaceOnUse" x1="215.0904" y1="321.722" x2="214.9104" y2="319.8773" gradientTransform="matrix(0.9938 -0.1108 0.1108 0.9938 -30.1428 20.1293)">
				<stop  offset="0" style="stop-color:#100A32"/>
				<stop  offset="1" style="stop-color:#0F0830"/>
			</linearGradient>
			<polygon style="fill:url(#SVGID_00000041278447596902938780000018352267228427612573_);" points="192.515,319.206 
				193.437,322.779 245.271,309.362 244.35,305.788 			"/>
		</g>
		<g>
			<path style="fill:#FFFFFF;" d="M203.712,313.194l0.621,1.18c7.032,13.365,22.342,20.128,36.957,16.323l0,0l-124.864,32.505
				l-0.027,0.007c-15.044,3.916-30.755-3.367-37.488-17.378l-0.063-0.132L203.712,313.194z"/>
		</g>
	</g>
	<g>
		<g>
			<g>
				
					<linearGradient id="XMLID_00000125562787009071294460000000060576350655649689_" gradientUnits="userSpaceOnUse" x1="249.6882" y1="182.2917" x2="301.183" y2="182.2917">
					<stop  offset="0" style="stop-color:#D5D7FE"/>
					<stop  offset="0.9867" style="stop-color:#D5D7FE"/>
				</linearGradient>
				<path id="XMLID_5_" style="fill:url(#XMLID_00000125562787009071294460000000060576350655649689_);" d="M298.722,187.614
					l-0.851-0.384c-0.386-0.174-0.59-0.587-0.515-1.003c0.39-2.17,0.444-4.353,0.195-6.486c-0.049-0.422,0.182-0.818,0.578-0.968
					l0.881-0.333c1.736-0.656,2.611-2.594,1.955-4.33l-0.97-2.567c-0.656-1.736-2.594-2.611-4.33-1.954l-0.88,0.332
					c-0.397,0.15-0.832,0.006-1.074-0.343c-1.224-1.765-2.709-3.367-4.436-4.736c-0.332-0.263-0.452-0.707-0.277-1.093l0.384-0.851
					c0.763-1.691,0.012-3.68-1.679-4.444l-2.501-1.129c-1.691-0.764-3.68-0.012-4.444,1.679l-0.384,0.851
					c-0.174,0.386-0.587,0.59-1.004,0.515c-2.169-0.39-4.352-0.444-6.486-0.195c-0.422,0.049-0.818-0.182-0.968-0.579l-0.333-0.88
					c-0.656-1.736-2.594-2.611-4.33-1.955l-2.566,0.97c-1.736,0.656-2.61,2.594-1.954,4.33l0.333,0.881
					c0.15,0.396,0.006,0.832-0.343,1.074c-1.765,1.224-3.367,2.709-4.736,4.436c-0.263,0.331-0.707,0.451-1.093,0.277l-0.851-0.384
					c-1.691-0.764-3.681-0.011-4.444,1.679l-1.129,2.501c-0.763,1.691-0.011,3.681,1.679,4.444l0.851,0.384
					c0.386,0.174,0.59,0.587,0.516,1.003c-0.39,2.17-0.444,4.352-0.195,6.486c0.049,0.421-0.182,0.818-0.578,0.968l-0.881,0.333
					c-1.736,0.656-2.611,2.595-1.955,4.33l0.97,2.566c0.656,1.736,2.595,2.611,4.33,1.955l0.88-0.333
					c0.397-0.15,0.832-0.006,1.074,0.343c1.225,1.765,2.709,3.367,4.436,4.736c0.332,0.263,0.451,0.707,0.277,1.093l0,0
					c-0.975,2.161-0.015,4.703,2.146,5.679l1.65,0.745c1.691,0.763,3.68,0.011,4.443-1.679l0.384-0.851
					c0.174-0.386,0.587-0.59,1.004-0.515c2.17,0.39,4.353,0.444,6.486,0.195c0.421-0.049,0.818,0.182,0.968,0.579l0.333,0.88
					c0.656,1.735,2.594,2.611,4.33,1.955l2.566-0.97c1.736-0.656,2.611-2.594,1.955-4.33l-0.333-0.88
					c-0.15-0.397-0.006-0.832,0.343-1.074c1.765-1.224,3.367-2.708,4.736-4.436c0.263-0.332,0.707-0.451,1.093-0.277l0.851,0.384
					c1.691,0.764,3.68,0.012,4.444-1.679l1.129-2.501C301.165,190.367,300.413,188.378,298.722,187.614z M269.538,195.356
					c-7.215-3.258-10.423-11.747-7.166-18.963c3.257-7.215,11.747-10.424,18.962-7.166c7.215,3.257,10.423,11.747,7.166,18.962
					C285.243,195.405,276.753,198.613,269.538,195.356z"/>
				
					<linearGradient id="SVGID_00000136379592295224482020000000836557241660764592_" gradientUnits="userSpaceOnUse" x1="266.3047" y1="182.2918" x2="284.5668" y2="182.2918">
					<stop  offset="0" style="stop-color:#D5D7FE"/>
					<stop  offset="0.9867" style="stop-color:#D5D7FE"/>
				</linearGradient>
				<path style="fill:url(#SVGID_00000136379592295224482020000000836557241660764592_);" d="M270.083,174.89
					c4.082-2.951,9.803-2.031,12.755,2.05c2.951,4.081,2.031,9.803-2.051,12.754c-4.081,2.951-9.803,2.032-12.754-2.05
					C265.082,183.563,266.002,177.841,270.083,174.89z"/>
			</g>
		</g>
	</g>
	<g>
		<g>
			
				<linearGradient id="SVGID_00000150097596707310791790000011343284563757843585_" gradientUnits="userSpaceOnUse" x1="485.9263" y1="274.3809" x2="543.7564" y2="274.3809">
				<stop  offset="0.0627" style="stop-color:#B6C2FD"/>
				<stop  offset="1" style="stop-color:#B6C2FD"/>
			</linearGradient>
			<path style="fill:url(#SVGID_00000150097596707310791790000011343284563757843585_);" d="M536.703,308.176l7.053-5.801
				c-7.789-8.932-40.385-46.331-41.698-48.249c-1.492-2.178-0.05-2.786-2.348-5.413c-2.298-2.627-6.988-8.127-6.988-8.127
				l-3.435,2.75l-3.362,2.84c0,0,4.492,5.663,6.626,8.425c2.134,2.762,3.009,1.464,4.858,3.348
				C499.038,259.608,529.443,298.809,536.703,308.176z"/>
			<path style="opacity:0.3;fill:#898B8E;" d="M525.867,294.21c4.708,6.061,8.74,11.26,10.837,13.965l7.053-5.801
				c-2.25-2.58-6.573-7.539-11.611-13.329c0,0-2.207,0.117-3.972,1.569C526.408,292.068,525.867,294.21,525.867,294.21z"/>
			<g>
				<path style="fill:#E84357;" d="M576.528,322.94l-2.684-0.794c-5.243-1.551-9.901-4.637-13.374-8.86l-9.4-11.429h0
					c1.238-1.739,1.156-4.092-0.2-5.741l-4.63-5.63c-3.025-0.941-8.277,1.75-13.322,5.9c-5.043,4.148-8.698,8.778-8.362,11.93
					l4.632,5.632c1.356,1.649,3.649,2.183,5.594,1.304l0,0l9.4,11.429c3.473,4.223,5.602,9.388,6.112,14.831l0.261,2.788
					c0.125,1.333,0.646,2.598,1.497,3.632l30.337,36.886c3.041,3.697,8.503,4.229,12.201,1.189l7.18-5.906l7.181-5.906
					c3.697-3.041,4.229-8.503,1.189-12.201l-30.337-36.886C578.953,324.076,577.812,323.32,576.528,322.94z"/>
				<path style="fill:#C7263C;" d="M573.844,322.145c-5.243-1.551-9.901-4.637-13.374-8.86l-9.4-11.429
					c0.079-0.111-4.8,1.209-9.487,5.064c-4.687,3.855-6.935,8.393-6.8,8.332l9.4,11.429c3.473,4.222,5.602,9.388,6.112,14.831
					l0.261,2.788c0.116,1.234,0.585,2.402,1.327,3.391c0,0,2.553-6.013,11.74-13.568c9.187-7.555,15.976-9.227,15.976-9.227
					c-0.827-0.919-1.882-1.605-3.072-1.957L573.844,322.145z"/>
				<path style="fill:#C7263C;" d="M568.062,335.201l-3.84,3.158c-1.245,1.024-1.425,2.865-0.401,4.11l26.595,32.336
					c1.024,1.245,2.865,1.425,4.11,0.4l3.84-3.158c1.245-1.024,1.425-2.865,0.4-4.11l-26.595-32.336
					C571.147,334.356,569.307,334.177,568.062,335.201z"/>
				<g>
					<path style="fill:#C7263C;" d="M553.592,349.804l27.654,33.623l1.475-1.213c0.957-0.787,1.095-2.201,0.307-3.157
						l-24.804-30.158c-0.787-0.957-2.201-1.095-3.157-0.308L553.592,349.804z"/>
					<path style="fill:#C7263C;" d="M608.996,360.604l-27.654-33.623l-1.475,1.213c-0.957,0.787-1.095,2.201-0.308,3.157
						l24.804,30.158c0.787,0.957,2.201,1.095,3.157,0.308L608.996,360.604z"/>
				</g>
			</g>
		</g>
		<g>
			<g>
				<g>
					
						<linearGradient id="XMLID_00000149362354381598683000000003493468672123221410_" gradientUnits="userSpaceOnUse" x1="518.6078" y1="196.6293" x2="588.5766" y2="196.6293">
						<stop  offset="0" style="stop-color:#D5D7FE"/>
						<stop  offset="0.9867" style="stop-color:#D5D7FE"/>
					</linearGradient>
					<path id="XMLID_2_" style="fill:url(#XMLID_00000149362354381598683000000003493468672123221410_);" d="M584.195,190.504
						l-1.22-0.002c-0.553-0.001-1.018-0.383-1.151-0.92c-0.697-2.795-1.801-5.425-3.241-7.835c-0.284-0.476-0.221-1.072,0.171-1.463
						l0.871-0.868c1.717-1.711,1.723-4.49,0.011-6.207l-2.53-2.54c-1.711-1.717-4.49-1.722-6.207-0.011l-0.871,0.867
						c-0.393,0.392-0.989,0.452-1.464,0.166c-2.404-1.448-5.031-2.562-7.823-3.269c-0.536-0.135-0.917-0.601-0.916-1.155l0.002-1.22
						c0.004-2.424-1.957-4.392-4.38-4.397l-3.585-0.006c-2.424-0.005-4.392,1.957-4.397,4.381l-0.002,1.22
						c-0.001,0.553-0.383,1.018-0.92,1.151c-2.794,0.697-5.425,1.801-7.834,3.24c-0.476,0.284-1.072,0.221-1.463-0.172l-0.868-0.871
						c-1.711-1.718-4.49-1.723-6.207-0.011l-2.539,2.53c-1.717,1.711-1.722,4.489-0.011,6.207l0.868,0.871
						c0.391,0.392,0.452,0.988,0.166,1.464c-1.448,2.404-2.562,5.031-3.269,7.823c-0.136,0.536-0.601,0.916-1.155,0.915
						l-1.219-0.002c-2.424-0.005-4.393,1.957-4.397,4.381l-0.007,3.585c-0.004,2.424,1.957,4.393,4.381,4.397l1.22,0.002
						c0.553,0.001,1.018,0.383,1.152,0.92c0.697,2.795,1.801,5.425,3.24,7.835c0.284,0.476,0.221,1.072-0.171,1.463l-0.871,0.868
						c-1.717,1.711-1.723,4.49-0.012,6.207l2.53,2.539c1.711,1.717,4.49,1.723,6.208,0.012l0.871-0.868
						c0.392-0.391,0.989-0.452,1.463-0.166c2.405,1.448,5.031,2.562,7.823,3.269c0.536,0.136,0.917,0.602,0.916,1.155l0,0
						c-0.006,3.097,2.501,5.613,5.598,5.619l2.365,0.005c2.424,0.005,4.392-1.957,4.397-4.38l0.002-1.22
						c0.001-0.554,0.383-1.018,0.92-1.152c2.794-0.697,5.425-1.801,7.834-3.24c0.476-0.284,1.072-0.221,1.463,0.171l0.868,0.871
						c1.711,1.717,4.49,1.722,6.207,0.012l2.539-2.53c1.717-1.711,1.723-4.49,0.011-6.207l-0.868-0.871
						c-0.392-0.393-0.453-0.989-0.166-1.464c1.449-2.404,2.563-5.031,3.27-7.823c0.136-0.536,0.601-0.916,1.155-0.915l1.22,0.002
						c2.424,0.005,4.393-1.957,4.397-4.381l0.007-3.585C588.581,192.478,586.62,190.509,584.195,190.504z M553.558,215.357
						c-10.343-0.019-18.713-8.42-18.693-18.763c0.019-10.343,8.419-18.713,18.763-18.694c10.343,0.019,18.712,8.42,18.693,18.763
						C572.301,207.007,563.901,215.376,553.558,215.357z"/>
					
						<linearGradient id="SVGID_00000110466234431078940090000011456038945169227696_" gradientUnits="userSpaceOnUse" x1="541.66" y1="196.6294" x2="565.5241" y2="196.6294">
						<stop  offset="0" style="stop-color:#D5D7FE"/>
						<stop  offset="0.9867" style="stop-color:#D5D7FE"/>
					</linearGradient>
					<path style="fill:url(#SVGID_00000110466234431078940090000011456038945169227696_);" d="M543.25,190.673
						c3.285-5.702,10.596-7.669,16.299-4.386c5.702,3.284,7.669,10.596,4.385,16.298c-3.284,5.702-10.596,7.67-16.298,4.386
						C541.933,203.687,539.966,196.375,543.25,190.673z"/>
				</g>
			</g>
		</g>
		<g>
			
				<linearGradient id="SVGID_00000065753154820838985690000013650794850307671226_" gradientUnits="userSpaceOnUse" x1="516.7306" y1="122.1055" x2="535.0378" y2="122.1055">
				<stop  offset="0.0627" style="stop-color:#859CFD"/>
				<stop  offset="1" style="stop-color:#859CFD"/>
			</linearGradient>
			<polygon style="fill:url(#SVGID_00000065753154820838985690000013650794850307671226_);" points="525.353,109.168 
				535.038,131.252 526.415,135.043 516.731,112.959 			"/>
			
				<linearGradient id="SVGID_00000023981084030355411810000010517912380933003711_" gradientUnits="userSpaceOnUse" x1="519.9857" y1="125.3093" x2="534.6257" y2="125.3093">
				<stop  offset="0.0627" style="stop-color:#B6C2FD"/>
				<stop  offset="1" style="stop-color:#B6C2FD"/>
			</linearGradient>
			<polygon style="fill:url(#SVGID_00000023981084030355411810000010517912380933003711_);" points="532.977,119.386 
				534.626,123.135 521.634,131.233 519.986,127.484 			"/>
			
				<linearGradient id="SVGID_00000133510301032207575970000015498792037509317795_" gradientUnits="userSpaceOnUse" x1="516.3318" y1="116.9995" x2="530.9719" y2="116.9995">
				<stop  offset="0.0627" style="stop-color:#B6C2FD"/>
				<stop  offset="1" style="stop-color:#B6C2FD"/>
			</linearGradient>
			<polygon style="fill:url(#SVGID_00000133510301032207575970000015498792037509317795_);" points="529.323,111.076 
				530.972,114.825 517.98,122.923 516.332,119.174 			"/>
			
				<linearGradient id="SVGID_00000034065737562714039070000007469809805117266578_" gradientUnits="userSpaceOnUse" x1="508.2618" y1="106.0544" x2="529.2825" y2="106.0544">
				<stop  offset="0.0627" style="stop-color:#7387DB"/>
				<stop  offset="1" style="stop-color:#7387DB"/>
			</linearGradient>
			<polygon style="fill:url(#SVGID_00000034065737562714039070000007469809805117266578_);" points="527.006,99.33 529.282,104.536 
				510.538,112.778 508.262,107.573 			"/>
			
				<linearGradient id="SVGID_00000147212476663631437420000008042958296486317219_" gradientUnits="userSpaceOnUse" x1="511.2609" y1="106.0544" x2="526.2833" y2="106.0544">
				<stop  offset="0.0627" style="stop-color:#859CFD"/>
				<stop  offset="1" style="stop-color:#859CFD"/>
			</linearGradient>
			<polygon style="fill:url(#SVGID_00000147212476663631437420000008042958296486317219_);" points="524.007,100.649 
				526.283,105.855 513.537,111.46 511.261,106.254 			"/>
			
				<linearGradient id="SVGID_00000130641080561058230680000002329834869691835553_" gradientUnits="userSpaceOnUse" x1="508.1639" y1="109.8756" x2="532.7282" y2="109.8756">
				<stop  offset="0.0627" style="stop-color:#B6C2FD"/>
				<stop  offset="1" style="stop-color:#B6C2FD"/>
			</linearGradient>
			<polygon style="fill:url(#SVGID_00000130641080561058230680000002329834869691835553_);" points="531.657,103.492 
				532.728,105.929 509.235,116.259 508.164,113.822 			"/>
			
				<linearGradient id="SVGID_00000149340553134289213700000002291754300262126504_" gradientUnits="userSpaceOnUse" x1="508.2618" y1="102.6452" x2="527.0063" y2="102.6452">
				<stop  offset="0.0627" style="stop-color:#B6C2FD"/>
				<stop  offset="1" style="stop-color:#B6C2FD"/>
			</linearGradient>
			<polygon style="fill:url(#SVGID_00000149340553134289213700000002291754300262126504_);" points="524.06,97.718 527.006,99.33 
				508.262,107.573 509.065,104.311 			"/>
		</g>
		<g>
			
				<linearGradient id="SVGID_00000165199218113561414820000002660754326253746869_" gradientUnits="userSpaceOnUse" x1="448.2533" y1="287.4297" x2="463.3123" y2="287.4297">
				<stop  offset="0.0627" style="stop-color:#859CFD"/>
				<stop  offset="1" style="stop-color:#859CFD"/>
			</linearGradient>
			<polygon style="fill:url(#SVGID_00000165199218113561414820000002660754326253746869_);" points="463.312,278.546 
				456.268,299.058 448.253,296.314 455.297,275.802 			"/>
			
				<linearGradient id="SVGID_00000142856672138258515820000007466863689771995823_" gradientUnits="userSpaceOnUse" x1="447.4105" y1="290.4156" x2="462.133" y2="290.4156">
				<stop  offset="0.0627" style="stop-color:#B6C2FD"/>
				<stop  offset="1" style="stop-color:#B6C2FD"/>
			</linearGradient>
			<polygon style="fill:url(#SVGID_00000142856672138258515820000007466863689771995823_);" points="462.133,289.951 
				460.94,293.436 447.41,290.88 448.603,287.396 			"/>
			
				<linearGradient id="SVGID_00000155857438920622856750000014735588298653435286_" gradientUnits="userSpaceOnUse" x1="450.0546" y1="282.6912" x2="464.7773" y2="282.6912">
				<stop  offset="0.0627" style="stop-color:#B6C2FD"/>
				<stop  offset="1" style="stop-color:#B6C2FD"/>
			</linearGradient>
			<polygon style="fill:url(#SVGID_00000155857438920622856750000014735588298653435286_);" points="464.777,282.226 
				463.584,285.711 450.055,283.156 451.248,279.671 			"/>
			
				<linearGradient id="SVGID_00000088832898542705249530000005508361397188045478_" gradientUnits="userSpaceOnUse" x1="451.3102" y1="272.4764" x2="470.3989" y2="272.4764">
				<stop  offset="0.0627" style="stop-color:#7387DB"/>
				<stop  offset="1" style="stop-color:#7387DB"/>
			</linearGradient>
			<polygon style="fill:url(#SVGID_00000088832898542705249530000005508361397188045478_);" points="470.399,273.043 
				468.734,277.874 451.31,271.91 452.975,267.078 			"/>
			
				<linearGradient id="SVGID_00000088105708694268622240000018336378150064307888_" gradientUnits="userSpaceOnUse" x1="454.098" y1="272.4764" x2="467.6111" y2="272.4764">
				<stop  offset="0.0627" style="stop-color:#859CFD"/>
				<stop  offset="1" style="stop-color:#859CFD"/>
			</linearGradient>
			<polygon style="fill:url(#SVGID_00000088105708694268622240000018336378150064307888_);" points="467.611,272.089 
				465.946,276.92 454.098,272.864 455.763,268.033 			"/>
			
				<linearGradient id="SVGID_00000033349958152066152340000005026375199379457971_" gradientUnits="userSpaceOnUse" x1="448.3278" y1="276.0247" x2="470.9409" y2="276.0247">
				<stop  offset="0.0627" style="stop-color:#B6C2FD"/>
				<stop  offset="1" style="stop-color:#B6C2FD"/>
			</linearGradient>
			<polygon style="fill:url(#SVGID_00000033349958152066152340000005026375199379457971_);" points="470.941,278.63 
				470.165,280.895 448.328,273.419 449.103,271.154 			"/>
			
				<linearGradient id="SVGID_00000008111248361587939450000016911834143061735611_" gradientUnits="userSpaceOnUse" x1="452.9751" y1="269.2266" x2="470.3989" y2="269.2266">
				<stop  offset="0.0627" style="stop-color:#B6C2FD"/>
				<stop  offset="1" style="stop-color:#B6C2FD"/>
			</linearGradient>
			<polygon style="fill:url(#SVGID_00000008111248361587939450000016911834143061735611_);" points="469.432,270.182 
				470.399,273.043 452.975,267.078 455.493,265.41 			"/>
		</g>
	</g>
	<g>
		<g>
			<path style="fill:#FFFFFF;" d="M489.043,187.033H332.386c-2.046,0-3.704-1.658-3.704-3.704V67.146
				c0-2.046,1.658-3.704,3.704-3.704h156.657c2.046,0,3.704,1.658,3.704,3.704v116.183
				C492.747,185.375,491.089,187.033,489.043,187.033z"/>
			
				<linearGradient id="SVGID_00000013879996379070250950000008895380452986398336_" gradientUnits="userSpaceOnUse" x1="333.3165" y1="134.4062" x2="488.1125" y2="134.4062">
				<stop  offset="0.0627" style="stop-color:#B6C2FD"/>
				<stop  offset="1" style="stop-color:#B6C2FD"/>
			</linearGradient>
			<path style="fill:url(#SVGID_00000013879996379070250950000008895380452986398336_);" d="M484.408,182.902H337.02
				c-2.046,0-3.704-1.658-3.704-3.704V89.614c0-2.046,1.658-3.704,3.704-3.704h147.388c2.046,0,3.704,1.658,3.704,3.704v89.584
				C488.112,181.244,486.454,182.902,484.408,182.902z"/>
			<g>
				
					<linearGradient id="SVGID_00000005949885236303499050000005967498860395927940_" gradientUnits="userSpaceOnUse" x1="452.4581" y1="74.6762" x2="456.3036" y2="74.6762">
					<stop  offset="0.0627" style="stop-color:#B6C2FD"/>
					<stop  offset="1" style="stop-color:#B6C2FD"/>
				</linearGradient>
				<path style="fill:url(#SVGID_00000005949885236303499050000005967498860395927940_);" d="M456.304,74.676
					c0-1.062-0.861-1.923-1.923-1.923s-1.923,0.861-1.923,1.923s0.861,1.923,1.923,1.923S456.304,75.738,456.304,74.676z"/>
				
					<linearGradient id="SVGID_00000160881795314502409650000016305912761779851957_" gradientUnits="userSpaceOnUse" x1="464.1272" y1="74.6762" x2="467.9727" y2="74.6762">
					<stop  offset="0.0627" style="stop-color:#B6C2FD"/>
					<stop  offset="1" style="stop-color:#B6C2FD"/>
				</linearGradient>
				<path style="fill:url(#SVGID_00000160881795314502409650000016305912761779851957_);" d="M467.973,74.676
					c0-1.062-0.861-1.923-1.923-1.923s-1.923,0.861-1.923,1.923s0.861,1.923,1.923,1.923S467.973,75.738,467.973,74.676z"/>
				
					<linearGradient id="SVGID_00000003092995719825704800000009095277096600548502_" gradientUnits="userSpaceOnUse" x1="475.7962" y1="74.6762" x2="479.6417" y2="74.6762">
					<stop  offset="0.0627" style="stop-color:#B6C2FD"/>
					<stop  offset="1" style="stop-color:#B6C2FD"/>
				</linearGradient>
				<path style="fill:url(#SVGID_00000003092995719825704800000009095277096600548502_);" d="M479.642,74.676
					c0-1.062-0.861-1.923-1.923-1.923c-1.062,0-1.923,0.861-1.923,1.923s0.861,1.923,1.923,1.923
					C478.781,76.599,479.642,75.738,479.642,74.676z"/>
			</g>
			<path style="fill:none;stroke:#FFFFFF;stroke-width:4;stroke-linecap:round;stroke-linejoin:round;stroke-miterlimit:10;" d="
				M414.501,154.58l-30.761-41.189c-6.648-8.901-19.202-10.834-28.219-4.344l-22.203,15.981v54.17c0,2.046,1.658,3.704,3.704,3.704
				h40.616L414.501,154.58z"/>
			<path style="fill:none;stroke:#FFFFFF;stroke-width:4;stroke-linecap:round;stroke-linejoin:round;stroke-miterlimit:10;" d="
				M474.619,133.181c-6.985-8.463-19.418-9.871-28.119-3.186l-32,24.585l-36.864,28.322h58.016h48.756
				c2.046,0,3.704-1.658,3.704-3.704v-29.67L474.619,133.181z"/>
			
				<ellipse transform="matrix(0.9735 -0.2286 0.2286 0.9735 -15.4837 99.0699)" style="fill:none;stroke:#FFFFFF;stroke-width:4;stroke-linecap:round;stroke-linejoin:round;stroke-miterlimit:10;" cx="419.959" cy="116.38" rx="12.102" ry="12.102"/>
		</g>
		
			<linearGradient id="SVGID_00000168101289121547313780000006351927352578195619_" gradientUnits="userSpaceOnUse" x1="187.8925" y1="79.9294" x2="360.4467" y2="79.9294">
			<stop  offset="0.0627" style="stop-color:#B6C2FD"/>
			<stop  offset="1" style="stop-color:#B6C2FD"/>
		</linearGradient>
		<path style="fill:url(#SVGID_00000168101289121547313780000006351927352578195619_);" d="M235.793,110.026l85.95-40.065
			c6.835,5.317,16.321,6.741,24.735,2.879c9.187-4.217,14.428-13.512,13.938-23.027L338.1,60.057l-8.344-5.917l0.952-10.185
			l22.315-10.244c-6.896-6.575-17.361-8.659-26.548-4.442c-8.391,3.852-13.482,11.941-13.929,20.565l-85.95,40.065
			c-6.835-5.317-16.321-6.741-24.735-2.879c-9.187,4.217-14.428,13.512-13.938,23.027l22.315-10.244l8.344,5.917l-0.952,10.185
			l-22.315,10.244c6.896,6.575,17.361,8.659,26.548,4.442C230.255,126.738,235.345,118.649,235.793,110.026z"/>
	</g>
</g>
</svg>
